<?xml version="1.0" encoding="UTF-8" standalone="no"?>
<!-- Created with Inkscape (http://www.inkscape.org/) -->

<svg
   xmlns:dc="http://purl.org/dc/elements/1.1/"
   xmlns:cc="http://creativecommons.org/ns#"
   xmlns:rdf="http://www.w3.org/1999/02/22-rdf-syntax-ns#"
   xmlns:svg="http://www.w3.org/2000/svg"
   xmlns="http://www.w3.org/2000/svg"
   xmlns:sodipodi="http://sodipodi.sourceforge.net/DTD/sodipodi-0.dtd"
   xmlns:inkscape="http://www.inkscape.org/namespaces/inkscape"
   width="192"
   height="108"
   viewBox="0 0 192 108"
   id="svg2"
   version="1.1"
   inkscape:version="0.91 r13725"
   sodipodi:docname="front.svg">
  <defs
     id="defs4" />
  <sodipodi:namedview
     id="base"
     pagecolor="#ffffff"
     bordercolor="#666666"
     borderopacity="1.0"
     inkscape:pageopacity="0.0"
     inkscape:pageshadow="2"
     inkscape:zoom="4.9059216"
     inkscape:cx="60.079212"
     inkscape:cy="45.999213"
     inkscape:document-units="px"
     inkscape:current-layer="layer1"
     showgrid="false"
     units="px"
     inkscape:window-width="1366"
     inkscape:window-height="706"
     inkscape:window-x="-8"
     inkscape:window-y="-8"
     inkscape:window-maximized="1" />
  <metadata
     id="metadata7">
    <rdf:RDF>
      <cc:Work
         rdf:about="">
        <dc:format>image/svg+xml</dc:format>
        <dc:type
           rdf:resource="http://purl.org/dc/dcmitype/StillImage" />
        <dc:title />
      </cc:Work>
    </rdf:RDF>
  </metadata>
  <g
     inkscape:label="pannel"
     inkscape:groupmode="layer"
     id="layer1"
     transform="translate(0,-944.36216)">
    <path
       style="fill:#000000;stroke:none"
       d="m 0,944.36218 192,0 0,108.00002 -192,0 z"
       id="rect4187" />
    <g
       transform="matrix(0.95059644,0,0,0.95062766,-2.7044877,945.42088)"
       style="font-style:normal;font-variant:normal;font-weight:normal;font-stretch:normal;font-size:12.5px;line-height:125%;font-family:Arvo;-inkscape-font-specification:Arvo;letter-spacing:0px;word-spacing:0px;fill:#ffffff;fill-opacity:1;stroke:none;stroke-width:1px;stroke-linecap:butt;stroke-linejoin:miter;stroke-opacity:1"
       id="flowRoot4179">
      <path
         d="m 41.61499,26.5613 q 0.524903,0 0.98877,0.189209 0.46997,0.189209 0.823974,0.518799 0.354004,0.32959 0.55542,0.775146 0.20752,0.439453 0.20752,0.939942 0,0.598144 -0.280762,1.104736 -0.280762,0.506592 -0.750732,0.836182 0.311279,0.183105 0.567627,0.439453 0.256347,0.250244 0.439453,0.55542 0.183105,0.299072 0.280761,0.646972 0.10376,0.347901 0.10376,0.720215 0,0.579834 -0.238037,1.086426 -0.231933,0.506592 -0.634765,0.891113 -0.402833,0.378418 -0.939942,0.598145 -0.537109,0.219726 -1.147461,0.219726 -0.616455,0 -1.159668,-0.219726 -0.543213,-0.219727 -0.946045,-0.598145 -0.402832,-0.384521 -0.640869,-0.891113 -0.231933,-0.506592 -0.231933,-1.086426 0,-0.372314 0.09766,-0.720215 0.10376,-0.354004 0.286865,-0.653076 0.189209,-0.305176 0.445557,-0.55542 0.262451,-0.256348 0.579834,-0.439453 -0.463868,-0.335693 -0.738526,-0.836182 -0.268554,-0.506591 -0.268554,-1.098632 0,-0.500489 0.201416,-0.939942 0.201416,-0.445556 0.549316,-0.775146 0.354004,-0.32959 0.830078,-0.518799 0.47607,-0.189209 1.019283,-0.189209 z m -1.885986,6.70166 q 0,0.360107 0.146484,0.683594 0.146485,0.317383 0.396729,0.55542 0.256347,0.238037 0.592041,0.378418 0.341797,0.140381 0.726318,0.140381 0.378418,0 0.714111,-0.140381 0.335694,-0.140381 0.585938,-0.378418 0.256348,-0.238037 0.402832,-0.55542 0.146484,-0.323487 0.146484,-0.683594 0,-0.354004 -0.146484,-0.671387 -0.146484,-0.317383 -0.402832,-0.55542 -0.250244,-0.238037 -0.585938,-0.372314 -0.335693,-0.140381 -0.714111,-0.140381 -0.384521,0 -0.726318,0.140381 -0.335694,0.134277 -0.592041,0.372314 -0.250244,0.238037 -0.396729,0.55542 -0.146484,0.317383 -0.146484,0.671387 z m 0.335693,-4.25415 q 0,0.305175 0.115967,0.57373 0.115967,0.262451 0.323486,0.463867 0.20752,0.195313 0.488282,0.31128 0.286865,0.115966 0.622558,0.115966 0.31128,0 0.585938,-0.115966 0.274658,-0.115967 0.482177,-0.31128 0.213624,-0.201416 0.335694,-0.463867 0.12207,-0.268555 0.12207,-0.57373 0,-0.299073 -0.12207,-0.561524 -0.12207,-0.268555 -0.335694,-0.463867 -0.207519,-0.201416 -0.482177,-0.317383 -0.274658,-0.115967 -0.585938,-0.115967 -0.335693,0 -0.622558,0.115967 -0.280762,0.115967 -0.488282,0.317383 -0.207519,0.195312 -0.323486,0.463867 -0.115967,0.262451 -0.115967,0.561524 z"
         id="path4191"
         inkscape:connector-curvature="0" />
      <path
         d="m 45.551758,35.985128 q 0,0 0,0 z"
         id="path4193"
         inkscape:connector-curvature="0" />
      <path
         d="m 52.546387,31.358663 q 0,-0.256348 -0.122071,-0.433349 -0.115966,-0.183106 -0.305175,-0.292969 -0.189209,-0.115967 -0.421143,-0.164795 -0.231934,-0.05493 -0.45166,-0.05493 -0.244141,0 -0.45166,0.05493 -0.201416,0.05493 -0.347901,0.158691 -0.146484,0.10376 -0.231933,0.256348 -0.07935,0.146484 -0.07935,0.32959 0,0.317383 0.189209,0.506592 0.195313,0.183105 0.646973,0.341796 l 1.214599,0.427247 q 0.78125,0.262451 1.141358,0.714111 0.360107,0.45166 0.360107,1.080322 0,0.421143 -0.170898,0.775147 -0.164795,0.3479 -0.476075,0.598144 -0.305175,0.244141 -0.738525,0.378418 -0.43335,0.140381 -0.964355,0.140381 -0.738526,0 -1.202393,-0.238037 -0.463867,-0.238037 -0.714111,-0.628662 l -0.634766,0 0,-1.049805 1.263428,0 q 0,0.262451 0.109863,0.45166 0.115967,0.183106 0.299072,0.299072 0.189209,0.115967 0.421143,0.170899 0.238037,0.05493 0.482178,0.05493 0.238037,0 0.457763,-0.05493 0.219727,-0.06104 0.384522,-0.170899 0.170898,-0.115966 0.268555,-0.274658 0.09766,-0.158691 0.09766,-0.360107 0,-0.305176 -0.201416,-0.518799 -0.195313,-0.213623 -0.671387,-0.384521 l -1.208496,-0.451661 q -0.738525,-0.262451 -1.098633,-0.665283 -0.354004,-0.408935 -0.354004,-1.019287 0,-0.402832 0.146485,-0.744629 0.152587,-0.341797 0.433349,-0.585937 0.286865,-0.250244 0.695801,-0.390625 0.408936,-0.140381 0.933838,-0.140381 0.67749,0 1.135254,0.189209 0.457763,0.189209 0.823974,0.646972 l 0.592041,0 0,1.049805 -1.25122,0 z"
         id="path4195"
         inkscape:connector-curvature="0" />
      <path
         d="m 56.782227,29.661886 1.483154,0 0,0.921631 -1.495361,0 -0.01831,3.649902 q 0,0.372314 0.08545,0.604248 0.08545,0.231934 0.274658,0.323486 0.189209,0.08545 0.427246,0.08545 0.256348,0 0.451661,-0.04272 0.195312,-0.04883 0.427246,-0.158691 l 0.262451,0.762939 q -0.292969,0.152588 -0.616455,0.238037 -0.323486,0.09155 -0.76294,0.09155 -0.415039,0 -0.726318,-0.10376 -0.305176,-0.09766 -0.518799,-0.335693 -0.207519,-0.238037 -0.311279,-0.634766 -0.10376,-0.402832 -0.10376,-1.000976 l 0.01831,-3.479004 -1.00708,0 0,-0.921631 1.019287,0 0,-1.513672 1.11084,-0.524902 0,2.038574 z"
         id="path4197"
         inkscape:connector-curvature="0" />
      <path
         d="m 59.193115,29.661886 2.398682,0 0,1.049804 -0.750733,0 1.483155,4.034424 1.550293,-4.034424 -0.744629,0 0,-1.049804 2.398681,0 0,1.049804 -0.653076,0 -2.81372,7.098389 0.866699,0 0,1.049805 -2.55127,0 0,-1.049805 0.769043,0 0.671387,-1.739502 -2.111816,-5.358887 -0.512696,0 0,-1.049804 z"
         id="path4199"
         inkscape:connector-curvature="0" />
      <path
         d="m 66.743164,26.488058 2.050781,0 0,8.447265 0.952149,0 0,1.049805 -3.00293,0 0,-1.049805 0.915527,0 0,-7.397461 -0.915527,0 0,-1.049804 z"
         id="path4201"
         inkscape:connector-curvature="0" />
      <path
         d="m 71.967773,32.969991 q 0,0.268555 0.03662,0.494385 0.04272,0.219727 0.115966,0.421143 0.22583,0.610351 0.720215,0.92163 0.500488,0.305176 1.129151,0.305176 0.494384,0 0.958252,-0.134277 0.46997,-0.140381 0.982666,-0.43335 l 0.457763,0.775147 q -0.622558,0.427246 -1.251221,0.634765 -0.628662,0.20752 -1.306152,0.20752 -0.640869,0 -1.190185,-0.213623 -0.543213,-0.213623 -0.939942,-0.634766 -0.390625,-0.421142 -0.616455,-1.049804 -0.219726,-0.628663 -0.219726,-1.464844 0,-0.67749 0.189209,-1.275635 0.189209,-0.604248 0.561523,-1.049805 0.378418,-0.45166 0.933838,-0.714111 0.55542,-0.262451 1.293945,-0.262451 0.714112,0 1.190186,0.219726 0.482177,0.213623 0.78125,0.573731 0.305176,0.354004 0.457763,0.811767 0.158692,0.457764 0.219727,0.933838 0.03052,0.231934 0.03662,0.469971 0.01221,0.238037 0.01221,0.463867 l -4.553223,0 z m 1.776123,-2.520752 q -0.396728,0 -0.6958,0.115967 -0.292969,0.109863 -0.500489,0.323486 -0.207519,0.20752 -0.335693,0.512696 -0.12207,0.305176 -0.183105,0.683593 l 3.277587,0 Q 75.281982,31.730978 75.19043,31.431905 75.10498,31.132833 74.921875,30.913106 74.73877,30.69338 74.451904,30.57131 74.165039,30.449239 73.743896,30.449239 Z"
         id="path4203"
         inkscape:connector-curvature="0" />
      <path
         d="m 81.721191,31.358663 q 0,-0.256348 -0.12207,-0.433349 -0.115967,-0.183106 -0.305176,-0.292969 -0.189209,-0.115967 -0.421142,-0.164795 -0.231934,-0.05493 -0.45166,-0.05493 -0.244141,0 -0.451661,0.05493 -0.201416,0.05493 -0.3479,0.158691 -0.146484,0.10376 -0.231934,0.256348 -0.07934,0.146484 -0.07934,0.32959 0,0.317383 0.189209,0.506592 0.195312,0.183105 0.646972,0.341796 l 1.2146,0.427247 q 0.78125,0.262451 1.141357,0.714111 0.360108,0.45166 0.360108,1.080322 0,0.421143 -0.170899,0.775147 -0.164795,0.3479 -0.476074,0.598144 -0.305176,0.244141 -0.738525,0.378418 -0.43335,0.140381 -0.964356,0.140381 -0.738525,0 -1.202392,-0.238037 -0.463867,-0.238037 -0.714112,-0.628662 l -0.634765,0 0,-1.049805 1.263428,0 q 0,0.262451 0.109863,0.45166 0.115967,0.183106 0.299072,0.299072 0.189209,0.115967 0.421143,0.170899 0.238037,0.05493 0.482177,0.05493 0.238037,0 0.457764,-0.05493 0.219727,-0.06104 0.384522,-0.170899 0.170898,-0.115966 0.268554,-0.274658 0.09766,-0.158691 0.09766,-0.360107 0,-0.305176 -0.201416,-0.518799 -0.195312,-0.213623 -0.671386,-0.384521 l -1.208496,-0.451661 q -0.738526,-0.262451 -1.098633,-0.665283 -0.354004,-0.408935 -0.354004,-1.019287 0,-0.402832 0.146484,-0.744629 0.152588,-0.341797 0.43335,-0.585937 0.286865,-0.250244 0.695801,-0.390625 0.408935,-0.140381 0.933838,-0.140381 0.67749,0 1.135253,0.189209 0.457764,0.189209 0.823975,0.646972 l 0.592041,0 0,1.049805 -1.251221,0 z"
         id="path4205"
         inkscape:connector-curvature="0" />
      <path
         d="m 84.766846,34.257833 1.33667,0.524902 -1.586914,3.277588 -0.878907,-0.323486 1.129151,-3.479004 z"
         id="path4207"
         inkscape:connector-curvature="0" />
      <path
         d="m 85.578613,35.985128 q 0,0 0,0 z"
         id="path4209"
         inkscape:connector-curvature="0" />
      <path
         d="m 92.176514,26.5613 q 0.524902,0 0.988769,0.189209 0.469971,0.189209 0.823975,0.518799 0.354004,0.32959 0.55542,0.775146 0.207519,0.439453 0.207519,0.939942 0,0.598144 -0.280761,1.104736 -0.280762,0.506592 -0.750733,0.836182 0.311279,0.183105 0.567627,0.439453 0.256348,0.250244 0.439453,0.55542 0.183106,0.299072 0.280762,0.646972 0.10376,0.347901 0.10376,0.720215 0,0.579834 -0.238037,1.086426 -0.231934,0.506592 -0.634766,0.891113 -0.402832,0.378418 -0.939941,0.598145 -0.53711,0.219726 -1.147461,0.219726 -0.616455,0 -1.159668,-0.219726 -0.543213,-0.219727 -0.946045,-0.598145 -0.402832,-0.384521 -0.640869,-0.891113 -0.231934,-0.506592 -0.231934,-1.086426 0,-0.372314 0.09766,-0.720215 0.10376,-0.354004 0.286865,-0.653076 0.189209,-0.305176 0.445557,-0.55542 0.262451,-0.256348 0.579834,-0.439453 -0.463867,-0.335693 -0.738525,-0.836182 -0.268555,-0.506591 -0.268555,-1.098632 0,-0.500489 0.201416,-0.939942 0.201416,-0.445556 0.549316,-0.775146 0.354004,-0.32959 0.830079,-0.518799 0.476074,-0.189209 1.019287,-0.189209 z m -1.885987,6.70166 q 0,0.360107 0.146485,0.683594 0.146484,0.317383 0.396728,0.55542 0.256348,0.238037 0.592041,0.378418 0.341797,0.140381 0.726319,0.140381 0.378418,0 0.714111,-0.140381 0.335693,-0.140381 0.585937,-0.378418 0.256348,-0.238037 0.402832,-0.55542 0.146485,-0.323487 0.146485,-0.683594 0,-0.354004 -0.146485,-0.671387 -0.146484,-0.317383 -0.402832,-0.55542 -0.250244,-0.238037 -0.585937,-0.372314 -0.335693,-0.140381 -0.714111,-0.140381 -0.384522,0 -0.726319,0.140381 -0.335693,0.134277 -0.592041,0.372314 -0.250244,0.238037 -0.396728,0.55542 -0.146485,0.317383 -0.146485,0.671387 z m 0.335694,-4.25415 q 0,0.305175 0.115966,0.57373 0.115967,0.262451 0.323487,0.463867 0.207519,0.195313 0.488281,0.31128 0.286865,0.115966 0.622559,0.115966 0.311279,0 0.585937,-0.115966 0.274658,-0.115967 0.482178,-0.31128 0.213623,-0.201416 0.335693,-0.463867 0.122071,-0.268555 0.122071,-0.57373 0,-0.299073 -0.122071,-0.561524 -0.12207,-0.268555 -0.335693,-0.463867 -0.20752,-0.201416 -0.482178,-0.317383 -0.274658,-0.115967 -0.585937,-0.115967 -0.335694,0 -0.622559,0.115967 -0.280762,0.115967 -0.488281,0.317383 -0.20752,0.195312 -0.323487,0.463867 -0.115966,0.262451 -0.115966,0.561524 z"
         id="path4211"
         inkscape:connector-curvature="0" />
      <path
         d="m 96.113281,35.985128 q 0,0 0,0 z"
         id="path4213"
         inkscape:connector-curvature="0" />
      <path
         d="m 98.969727,29.661886 2.185063,0 0,1.049804 -0.59205,0 1.5625,4.357911 1.52588,-4.357911 -0.38452,0 0,-1.049804 2.00195,0 0,1.049804 -0.54321,0 -2.06909,5.371094 -1.12305,0 -2.062985,-5.371094 -0.500488,0 0,-1.049804 z"
         id="path4215"
         inkscape:connector-curvature="0" />
      <path
         d="m 106.08643,32.823507 q 0.006,-0.750733 0.23803,-1.367188 0.23804,-0.616455 0.65918,-1.055908 0.42115,-0.445556 1.00098,-0.683594 0.57983,-0.238037 1.27563,-0.238037 0.70191,0 1.28174,0.238037 0.58594,0.238038 1.00098,0.677491 0.41504,0.433349 0.64697,1.049804 0.23194,0.616455 0.23194,1.367188 0,0.738525 -0.23194,1.361084 -0.23193,0.616455 -0.64697,1.062012 -0.41504,0.445556 -1.00098,0.6958 -0.57983,0.244141 -1.28174,0.244141 -0.71411,0 -1.29394,-0.244141 -0.57984,-0.24414 -0.99487,-0.683593 -0.41504,-0.445557 -0.64698,-1.062012 -0.23193,-0.616455 -0.23803,-1.361084 z m 1.20239,0 q 0,0.543213 0.15259,0.982666 0.15869,0.439453 0.42724,0.750732 0.27466,0.305176 0.62866,0.476075 0.36011,0.164794 0.76294,0.164794 0.42115,0 0.78125,-0.164794 0.36621,-0.164795 0.63477,-0.469971 0.26855,-0.311279 0.42114,-0.750733 0.15259,-0.439453 0.15259,-0.988769 0,-0.573731 -0.15259,-1.019287 -0.15259,-0.445557 -0.42114,-0.744629 -0.26245,-0.299072 -0.62866,-0.45166 -0.36621,-0.152588 -0.78736,-0.152588 -0.40283,0 -0.76294,0.152588 -0.354,0.152588 -0.62866,0.45166 -0.26855,0.299072 -0.42724,0.744629 -0.15259,0.445556 -0.15259,1.019287 z"
         id="path4217"
         inkscape:connector-curvature="0" />
      <path
         d="m 113.59375,29.661886 2.06299,0 0,5.273437 0.95215,0 0,1.049805 -3.00293,0 0,-1.049805 0.90332,0 0,-4.223633 -0.91553,0 0,-1.049804 z m 0.7019,-2.23999 q 0,-0.158692 0.061,-0.299073 0.0671,-0.146484 0.1709,-0.250244 0.10986,-0.109863 0.25635,-0.170898 0.14648,-0.06714 0.31127,-0.06714 0.1587,0 0.29908,0.06714 0.14648,0.06104 0.25024,0.170898 0.10986,0.10376 0.1709,0.250244 0.0671,0.140381 0.0671,0.299073 0,0.164794 -0.0671,0.311279 -0.061,0.146484 -0.1709,0.262451 -0.10376,0.109863 -0.25024,0.177002 -0.14038,0.06104 -0.29908,0.06104 -0.16479,0 -0.31127,-0.06104 -0.14649,-0.06714 -0.25635,-0.177002 -0.10376,-0.115967 -0.1709,-0.262451 -0.061,-0.146485 -0.061,-0.311279 z"
         id="path4219"
         inkscape:connector-curvature="0" />
      <path
         d="m 118.74512,32.969991 q 0,0.268555 0.0366,0.494385 0.0427,0.219727 0.11597,0.421143 0.22583,0.610351 0.72021,0.92163 0.50049,0.305176 1.12915,0.305176 0.49439,0 0.95825,-0.134277 0.46997,-0.140381 0.98267,-0.43335 l 0.45776,0.775147 q -0.62256,0.427246 -1.25122,0.634765 -0.62866,0.20752 -1.30615,0.20752 -0.64087,0 -1.19019,-0.213623 -0.54321,-0.213623 -0.93994,-0.634766 -0.39062,-0.421142 -0.61645,-1.049804 -0.21973,-0.628663 -0.21973,-1.464844 0,-0.67749 0.18921,-1.275635 0.18921,-0.604248 0.56152,-1.049805 0.37842,-0.45166 0.93384,-0.714111 0.55542,-0.262451 1.29395,-0.262451 0.71411,0 1.19018,0.219726 0.48218,0.213623 0.78125,0.573731 0.30518,0.354004 0.45777,0.811767 0.15869,0.457764 0.21972,0.933838 0.0305,0.231934 0.0366,0.469971 0.0122,0.238037 0.0122,0.463867 l -4.55322,0 z m 1.77612,-2.520752 q -0.39673,0 -0.6958,0.115967 -0.29297,0.109863 -0.50049,0.323486 -0.20752,0.20752 -0.33569,0.512696 -0.12207,0.305176 -0.18311,0.683593 l 3.27759,0 q -0.0244,-0.354003 -0.11597,-0.653076 -0.0854,-0.299072 -0.26855,-0.518799 -0.18311,-0.219726 -0.46997,-0.341796 -0.28687,-0.122071 -0.70801,-0.122071 z"
         id="path4221"
         inkscape:connector-curvature="0" />
      <path
         d="m 128.49854,31.358663 q 0,-0.256348 -0.12208,-0.433349 -0.11596,-0.183106 -0.30517,-0.292969 -0.18921,-0.115967 -0.42114,-0.164795 -0.23194,-0.05493 -0.45166,-0.05493 -0.24414,0 -0.45166,0.05493 -0.20142,0.05493 -0.3479,0.158691 -0.14649,0.10376 -0.23194,0.256348 -0.0793,0.146484 -0.0793,0.32959 0,0.317383 0.18921,0.506592 0.19531,0.183105 0.64697,0.341796 l 1.2146,0.427247 q 0.78125,0.262451 1.14136,0.714111 0.3601,0.45166 0.3601,1.080322 0,0.421143 -0.1709,0.775147 -0.16479,0.3479 -0.47607,0.598144 -0.30518,0.244141 -0.73853,0.378418 -0.43335,0.140381 -0.96435,0.140381 -0.73853,0 -1.20239,-0.238037 -0.46387,-0.238037 -0.71411,-0.628662 l -0.63477,0 0,-1.049805 1.26343,0 q 0,0.262451 0.10986,0.45166 0.11597,0.183106 0.29907,0.299072 0.18921,0.115967 0.42115,0.170899 0.23803,0.05493 0.48217,0.05493 0.23804,0 0.45777,-0.05493 0.21972,-0.06104 0.38452,-0.170899 0.1709,-0.115966 0.26855,-0.274658 0.0977,-0.158691 0.0977,-0.360107 0,-0.305176 -0.20142,-0.518799 -0.19531,-0.213623 -0.67138,-0.384521 l -1.2085,-0.451661 q -0.73852,-0.262451 -1.09863,-0.665283 -0.35401,-0.408935 -0.35401,-1.019287 0,-0.402832 0.14649,-0.744629 0.15259,-0.341797 0.43335,-0.585937 0.28686,-0.250244 0.6958,-0.390625 0.40893,-0.140381 0.93384,-0.140381 0.67749,0 1.13525,0.189209 0.45776,0.189209 0.82397,0.646972 l 0.59205,0 0,1.049805 -1.25122,0 z"
         id="path4223"
         inkscape:connector-curvature="0" />
      <path
         d="m 131.54419,34.257833 1.33667,0.524902 -1.58691,3.277588 -0.87891,-0.323486 1.12915,-3.479004 z"
         id="path4225"
         inkscape:connector-curvature="0" />
      <path
         d="m 132.35596,35.985128 q 0,0 0,0 z"
         id="path4227"
         inkscape:connector-curvature="0" />
      <path
         d="m 138.95386,26.5613 q 0.5249,0 0.98877,0.189209 0.46997,0.189209 0.82397,0.518799 0.35401,0.32959 0.55542,0.775146 0.20752,0.439453 0.20752,0.939942 0,0.598144 -0.28076,1.104736 -0.28076,0.506592 -0.75073,0.836182 0.31128,0.183105 0.56762,0.439453 0.25635,0.250244 0.43946,0.55542 0.1831,0.299072 0.28076,0.646972 0.10376,0.347901 0.10376,0.720215 0,0.579834 -0.23804,1.086426 -0.23193,0.506592 -0.63476,0.891113 -0.40284,0.378418 -0.93995,0.598145 -0.53711,0.219726 -1.14746,0.219726 -0.61645,0 -1.15966,-0.219726 -0.54322,-0.219727 -0.94605,-0.598145 -0.40283,-0.384521 -0.64087,-0.891113 -0.23193,-0.506592 -0.23193,-1.086426 0,-0.372314 0.0976,-0.720215 0.10376,-0.354004 0.28687,-0.653076 0.18921,-0.305176 0.44556,-0.55542 0.26245,-0.256348 0.57983,-0.439453 -0.46387,-0.335693 -0.73853,-0.836182 -0.26855,-0.506591 -0.26855,-1.098632 0,-0.500489 0.20142,-0.939942 0.20141,-0.445556 0.54931,-0.775146 0.35401,-0.32959 0.83008,-0.518799 0.47607,-0.189209 1.01929,-0.189209 z m -1.88599,6.70166 q 0,0.360107 0.14649,0.683594 0.14648,0.317383 0.39672,0.55542 0.25635,0.238037 0.59204,0.378418 0.3418,0.140381 0.72632,0.140381 0.37842,0 0.71411,-0.140381 0.3357,-0.140381 0.58594,-0.378418 0.25635,-0.238037 0.40283,-0.55542 0.14649,-0.323487 0.14649,-0.683594 0,-0.354004 -0.14649,-0.671387 -0.14648,-0.317383 -0.40283,-0.55542 -0.25024,-0.238037 -0.58594,-0.372314 -0.33569,-0.140381 -0.71411,-0.140381 -0.38452,0 -0.72632,0.140381 -0.33569,0.134277 -0.59204,0.372314 -0.25024,0.238037 -0.39672,0.55542 -0.14649,0.317383 -0.14649,0.671387 z m 0.33569,-4.25415 q 0,0.305175 0.11597,0.57373 0.11597,0.262451 0.32349,0.463867 0.20752,0.195313 0.48828,0.31128 0.28686,0.115966 0.62256,0.115966 0.31128,0 0.58593,-0.115966 0.27466,-0.115967 0.48218,-0.31128 0.21363,-0.201416 0.3357,-0.463867 0.12207,-0.268555 0.12207,-0.57373 0,-0.299073 -0.12207,-0.561524 -0.12207,-0.268555 -0.3357,-0.463867 -0.20752,-0.201416 -0.48218,-0.317383 -0.27465,-0.115967 -0.58593,-0.115967 -0.3357,0 -0.62256,0.115967 -0.28076,0.115967 -0.48828,0.317383 -0.20752,0.195312 -0.32349,0.463867 -0.11597,0.262451 -0.11597,0.561524 z"
         id="path4229"
         inkscape:connector-curvature="0" />
      <path
         d="m 142.89062,35.985128 q 0,0 0,0 z"
         id="path4231"
         inkscape:connector-curvature="0" />
      <path
         d="m 145.74707,29.661886 2.18506,0 0,1.049804 -0.59204,0 1.5625,4.357911 1.52588,-4.357911 -0.38452,0 0,-1.049804 2.00195,0 0,1.049804 -0.54321,0 -2.0691,5.371094 -1.12304,0 -2.06299,-5.371094 -0.50049,0 0,-1.049804 z"
         id="path4233"
         inkscape:connector-curvature="0" />
      <path
         d="m 152.90039,29.661886 2.06299,0 0,5.273437 0.95215,0 0,1.049805 -3.00293,0 0,-1.049805 0.90332,0 0,-4.223633 -0.91553,0 0,-1.049804 z m 0.7019,-2.23999 q 0,-0.158692 0.061,-0.299073 0.0671,-0.146484 0.1709,-0.250244 0.10986,-0.109863 0.25635,-0.170898 0.14648,-0.06714 0.31128,-0.06714 0.15869,0 0.29907,0.06714 0.14648,0.06104 0.25024,0.170898 0.10987,0.10376 0.1709,0.250244 0.0671,0.140381 0.0671,0.299073 0,0.164794 -0.0671,0.311279 -0.061,0.146484 -0.1709,0.262451 -0.10376,0.109863 -0.25024,0.177002 -0.14038,0.06104 -0.29907,0.06104 -0.1648,0 -0.31128,-0.06104 -0.14649,-0.06714 -0.25635,-0.177002 -0.10376,-0.115967 -0.1709,-0.262451 -0.061,-0.146485 -0.061,-0.311279 z"
         id="path4235"
         inkscape:connector-curvature="0" />
      <path
         d="m 158.05176,32.969991 q 0,0.268555 0.0366,0.494385 0.0427,0.219727 0.11597,0.421143 0.22583,0.610351 0.72021,0.92163 0.50049,0.305176 1.12915,0.305176 0.49439,0 0.95825,-0.134277 0.46997,-0.140381 0.98267,-0.43335 l 0.45776,0.775147 q -0.62256,0.427246 -1.25122,0.634765 -0.62866,0.20752 -1.30615,0.20752 -0.64087,0 -1.19019,-0.213623 -0.54321,-0.213623 -0.93994,-0.634766 -0.39062,-0.421142 -0.61645,-1.049804 -0.21973,-0.628663 -0.21973,-1.464844 0,-0.67749 0.18921,-1.275635 0.18921,-0.604248 0.56152,-1.049805 0.37842,-0.45166 0.93384,-0.714111 0.55542,-0.262451 1.29395,-0.262451 0.71411,0 1.19018,0.219726 0.48218,0.213623 0.78125,0.573731 0.30518,0.354004 0.45777,0.811767 0.15869,0.457764 0.21972,0.933838 0.0305,0.231934 0.0366,0.469971 0.0122,0.238037 0.0122,0.463867 l -4.55322,0 z m 1.77612,-2.520752 q -0.39673,0 -0.6958,0.115967 -0.29297,0.109863 -0.50049,0.323486 -0.20752,0.20752 -0.33569,0.512696 -0.12207,0.305176 -0.18311,0.683593 l 3.27759,0 q -0.0244,-0.354003 -0.11597,-0.653076 -0.0854,-0.299072 -0.26855,-0.518799 -0.18311,-0.219726 -0.46997,-0.341796 -0.28687,-0.122071 -0.70801,-0.122071 z"
         id="path4237"
         inkscape:connector-curvature="0" />
      <path
         d="m 167.80518,31.358663 q 0,-0.256348 -0.12207,-0.433349 -0.11597,-0.183106 -0.30518,-0.292969 -0.18921,-0.115967 -0.42114,-0.164795 -0.23194,-0.05493 -0.45166,-0.05493 -0.24414,0 -0.45166,0.05493 -0.20142,0.05493 -0.3479,0.158691 -0.14649,0.10376 -0.23194,0.256348 -0.0793,0.146484 -0.0793,0.32959 0,0.317383 0.18921,0.506592 0.19531,0.183105 0.64697,0.341796 l 1.2146,0.427247 q 0.78125,0.262451 1.14136,0.714111 0.3601,0.45166 0.3601,1.080322 0,0.421143 -0.1709,0.775147 -0.16479,0.3479 -0.47607,0.598144 -0.30518,0.244141 -0.73852,0.378418 -0.43335,0.140381 -0.96436,0.140381 -0.73853,0 -1.20239,-0.238037 -0.46387,-0.238037 -0.71411,-0.628662 l -0.63477,0 0,-1.049805 1.26343,0 q 0,0.262451 0.10986,0.45166 0.11597,0.183106 0.29907,0.299072 0.18921,0.115967 0.42115,0.170899 0.23803,0.05493 0.48217,0.05493 0.23804,0 0.45777,-0.05493 0.21972,-0.06104 0.38452,-0.170899 0.1709,-0.115966 0.26855,-0.274658 0.0977,-0.158691 0.0977,-0.360107 0,-0.305176 -0.20142,-0.518799 -0.19531,-0.213623 -0.67138,-0.384521 l -1.2085,-0.451661 q -0.73852,-0.262451 -1.09863,-0.665283 -0.35401,-0.408935 -0.35401,-1.019287 0,-0.402832 0.14649,-0.744629 0.15259,-0.341797 0.43335,-0.585937 0.28686,-0.250244 0.6958,-0.390625 0.40893,-0.140381 0.93384,-0.140381 0.67749,0 1.13525,0.189209 0.45776,0.189209 0.82398,0.646972 l 0.59204,0 0,1.049805 -1.25122,0 z"
         id="path4239"
         inkscape:connector-curvature="0" />
    </g>
  </g>
</svg>
