<?xml version="1.0" encoding="UTF-8" standalone="no"?>
<!-- Created with Inkscape (http://www.inkscape.org/) -->

<svg
   xmlns:dc="http://purl.org/dc/elements/1.1/"
   xmlns:cc="http://creativecommons.org/ns#"
   xmlns:rdf="http://www.w3.org/1999/02/22-rdf-syntax-ns#"
   xmlns:svg="http://www.w3.org/2000/svg"
   xmlns="http://www.w3.org/2000/svg"
   xmlns:sodipodi="http://sodipodi.sourceforge.net/DTD/sodipodi-0.dtd"
   xmlns:inkscape="http://www.inkscape.org/namespaces/inkscape"
   width="64"
   height="64"
   id="svg2"
   version="1.1"
   inkscape:version="0.48.4 r9939"
   sodipodi:docname="logo-mmi-alter.svg">
  <defs
     id="defs4" />
  <sodipodi:namedview
     id="base"
     pagecolor="#ffffff"
     bordercolor="#666666"
     borderopacity="1.0"
     inkscape:pageopacity="0.0"
     inkscape:pageshadow="2"
     inkscape:zoom="5.6"
     inkscape:cx="34.858911"
     inkscape:cy="37.446689"
     inkscape:document-units="px"
     inkscape:current-layer="layer2"
     showgrid="false"
     showguides="true"
     inkscape:guide-bbox="true"
     inkscape:window-width="1680"
     inkscape:window-height="1004"
     inkscape:window-x="0"
     inkscape:window-y="24"
     inkscape:window-maximized="1" />
  <metadata
     id="metadata7">
    <rdf:RDF>
      <cc:Work
         rdf:about="">
        <dc:format>image/svg+xml</dc:format>
        <dc:type
           rdf:resource="http://purl.org/dc/dcmitype/StillImage" />
        <dc:title></dc:title>
      </cc:Work>
    </rdf:RDF>
  </metadata>
  <g
     inkscape:groupmode="layer"
     id="layer2"
     inkscape:label="wolf"
     style="display:inline">
    <path
       style="fill:#241f1c;fill-opacity:1;fill-rule:nonzero;stroke:none"
       d="m 17,11 c 0,9.104148 0.708084,7.646867 1.125,11.5 0.233808,2.160847 0.61451,4.098106 -0.4375,6 -0.493875,0.89286 -1.175465,2.645092 -2.5,3 1.213297,1.213297 1.827406,0.841045 2.96875,1.5 -1.148421,0.663041 -1.810362,2.447862 -3.5625,4.2 1.786765,0 4.365546,-1.224475 5.90625,0.20625 1.641756,1.524564 2.811574,3.746793 3.75,5.78125 0.484183,1.049682 0.53782,2.335868 1.15625,3.3125 0.77577,1.225106 2.609731,3.3474 3.90625,3 1.457721,-0.390594 3.420251,-0.523774 5.375,0 0.658349,0.176405 3.002216,-1.434167 3.90625,-3 -0.658785,-2.458618 -1.078725,-5.337999 -0.125,-7.03125 1.16469,-2.067801 2.635479,-2.322438 4.34375,-5.28125 0.601142,-1.041209 0.321872,-4.268698 -0.5625,-5.09375 -1.027605,-0.958676 -4.910319,-1.241089 -6.75,0.21875 -1.164512,0.924073 -2.065799,3.523802 -1.5,4.1875 0.683358,0.801598 6,-0.972938 6,-0.1875 0,0.807559 -4,3.615842 -4,10.3875 0,1.463585 -2.224561,2.5 -4,2.5 -1.775439,0 -4,-0.758943 -4,-2.5 0,-7.284512 -4,-8.719501 -4,-10.3875 0,-0.707083 5.252981,0.934519 6,0.1875 0.47528,-0.47528 -0.367329,-3.186346 -1.5,-4.1875 -1.655562,-1.463331 -5.151486,-0.463986 -6,-1.3125 -0.623901,-0.623901 1.517004,-4.213758 3.3,-5.40625 1.690761,-1.1308 4.165943,0.71875 6.2,0.71875 2.034057,0 4.38986,-1.646533 6.2,-0.71875 1.984826,1.017318 2.968875,3.116676 4.3,4.90625 0.487251,0.655064 0.794454,1.132894 1,1.9 0.420438,1.569095 0.712419,3.33949 0.2,4.881 -0.893507,2.68794 -4.166881,4.082961 -4.9,6.819 -0.332636,1.241416 0.41875,4.55625 0.41875,4.55625 0.579889,-2.107756 3.042719,-7.011469 4.28125,-8.25 C 44.738531,36.167719 47.716457,37.2 49.40625,37.2 47.543775,35.337525 47.378083,33.885847 45.84375,33 c 1.257985,-0.726298 1.581536,-0.699092 2.96875,-1.5 -1.295646,-0.347167 -1.789499,-2.212831 -2.5,-3 -0.258936,-0.286874 -0.1638,-0.623287 -0.25,-1 -0.355564,-1.55389 -0.488245,-3.434576 -0.1875,-5 C 46.645927,18.487208 47,19.100073 47,11 c -6.071566,3.50542 -6.505338,4.535569 -7.53125,6.3125 -5.060664,-1.356001 -9.943683,-1.338089 -14.9375,0 C 23.339295,16.120544 23.956735,15.016473 17,11 z"
       id="rect3085"
       inkscape:connector-curvature="0"
       sodipodi:nodetypes="csscccssssscsssssssssssssssssssscscccssscccc" />
    <path
       style="fill:#241f1c;fill-opacity:1;fill-rule:nonzero;stroke:none"
       d="m 29,50.1 c 1.080732,-0.289595 1.38373,0.805577 3,0.8 1.61627,-0.0056 1.883181,-1.099265 3,-0.8 0.710236,0.190316 -0.133393,2.13335 -1,3 -0.877747,0.87779 -3.103258,0.896786 -4,0 -1.198089,-1.198147 -1.485626,-2.86987 -1,-3 z"
       id="rect3118"
       inkscape:connector-curvature="0"
       sodipodi:nodetypes="czcssc" />
  </g>
</svg>
